<svg width="80" height="159" viewBox="0 0 80 159" fill="none" xmlns="http://www.w3.org/2000/svg">
<g id="freepik--Plant--inject-163">
<path id="Vector" d="M35.6207 134.29C36.5261 130.958 34.2899 127.617 31.8454 125.236C29.401 122.855 26.4767 120.664 25.2002 117.469C23.136 112.29 25.9064 105.59 22.3936 101.272C20.3204 98.7369 16.6084 97.8859 14.7706 95.1698C13.9208 93.6729 13.3589 92.03 13.1138 90.3262C11.1603 81.7248 6.92941 73.8072 0.86446 67.4028C0.455619 75.0643 2.11615 82.6946 5.67185 89.4933C7.09325 92.2093 8.84962 94.8529 9.29324 97.8859C10.0628 102.802 7.31053 107.845 8.5237 112.697C9.90888 118.22 16.1105 121.923 16.4002 127.608C16.6537 132.416 12.462 136.662 12.7788 141.442C13.0327 143.489 13.7748 145.445 14.9426 147.146C18.6545 153.329 24.1228 157.584 32.3977 157.449L42.5376 157.802L35.6207 134.29Z" fill="#FF2037"/>
<g id="Group" opacity="0.3">
<path id="Vector_2" d="M35.6207 134.29C36.5261 130.958 34.2899 127.617 31.8454 125.236C29.401 122.855 26.4767 120.664 25.2002 117.469C23.136 112.29 25.9064 105.59 22.3936 101.272C20.3204 98.7369 16.6084 97.8859 14.7706 95.1698C13.9208 93.6729 13.3589 92.03 13.1138 90.3262C11.1603 81.7248 6.92941 73.8072 0.86446 67.4028C0.455619 75.0643 2.11615 82.6946 5.67185 89.4933C7.09325 92.2093 8.84962 94.8529 9.29324 97.8859C10.0628 102.802 7.31053 107.845 8.5237 112.697C9.90888 118.22 16.1105 121.923 16.4002 127.608C16.6537 132.416 12.462 136.662 12.7788 141.442C13.0327 143.489 13.7748 145.445 14.9426 147.146C18.6545 153.329 24.1228 157.584 32.3977 157.449L42.5376 157.802L35.6207 134.29Z" fill="black"/>
</g>
<path id="Vector_3" d="M44.5843 158.01C45.513 158.153 46.4595 158.135 47.3819 157.955C48.5018 157.785 49.6024 157.506 50.6683 157.122C52.1402 156.611 53.5169 155.858 54.7423 154.895C55.4796 154.302 56.0556 153.533 56.4172 152.659C56.7201 151.679 56.8787 150.661 56.888 149.635C56.9084 148.539 56.99 147.445 57.1325 146.358C57.3232 145.201 57.7417 144.093 58.3637 143.099C59.5588 140.998 61.5506 139.006 62.1843 136.155C62.818 133.303 62.3835 130.315 61.9127 127.273C61.4419 124.231 61.0073 120.936 62.1481 117.749C63.2888 114.562 65.4617 111.71 66.5752 108.143C67.6888 104.576 67.1637 100.647 67.3991 96.8172C67.4686 94.872 67.9176 92.959 68.7209 91.186C69.5357 89.3753 70.6764 87.7004 71.5637 85.8173C73.3744 81.9967 73.6822 77.6692 74.1711 73.4231C74.4155 71.2865 74.6509 69.1227 74.8954 66.9499C75.0495 64.753 75.4287 62.5779 76.0271 60.4585C76.714 58.322 77.5241 56.2272 78.4534 54.1845C78.932 53.128 79.3255 52.0351 79.6303 50.9161C79.8009 49.7579 79.9097 48.5913 79.9563 47.4215C80.0642 45.0792 79.9734 42.732 79.6847 40.4051C79.413 38.0693 78.9875 35.7516 78.734 33.4067C78.734 33.2619 78.734 33.1261 78.734 32.9993L78.6797 32.5376L78.2723 32.7368C76.1317 33.8352 74.2729 35.4121 72.8402 37.345C71.4351 39.2377 70.3043 41.3195 69.4814 43.5285C67.7884 47.8832 67.1818 52.4462 66.3308 56.8009C65.4798 61.1556 64.3933 65.4379 62.1662 69.0593C61.0526 70.87 59.7036 72.5177 58.5448 74.2741C57.2864 75.9882 56.4266 77.9615 56.0279 80.0502C55.4214 84.3416 57.7843 88.1078 57.2954 91.9103C57.0748 93.7729 56.4574 95.5666 55.4847 97.1703C54.5794 98.7909 53.4839 100.294 52.4518 101.797C51.4057 103.271 50.4966 104.838 49.7358 106.477C49.0197 108.082 48.5965 109.802 48.4864 111.556C48.2419 114.979 48.7218 118.22 48.4864 121.28C48.2037 124.196 47.3517 127.029 45.9786 129.618C44.7564 132.108 43.3893 134.362 42.2485 136.553C41.6782 137.639 41.144 138.708 40.7095 139.785C40.2982 140.819 39.9948 141.893 39.8041 142.99C39.5011 144.905 39.4767 146.853 39.7317 148.775C39.9977 151.455 41.0004 154.009 42.6288 156.154C42.8777 156.478 43.1533 156.781 43.4527 157.059C43.6526 157.269 43.8741 157.457 44.1136 157.62C44.4938 157.901 44.693 158.028 44.693 158.028C43.9692 157.456 43.3104 156.806 42.7284 156.09C41.174 153.938 40.2351 151.403 40.0123 148.757C39.7818 146.859 39.8245 144.939 40.1391 143.053C40.3297 141.983 40.6332 140.936 41.0444 139.93C41.5032 138.841 42.02 137.777 42.5926 136.743C43.7424 134.57 45.1185 132.325 46.3679 129.817C47.782 127.188 48.662 124.305 48.9572 121.334C49.2288 118.211 48.758 114.951 49.0115 111.62C49.1281 109.922 49.5418 108.258 50.2337 106.704C50.9992 105.098 51.9083 103.565 52.9498 102.123C53.9818 100.62 55.0773 99.1168 56.0189 97.46C57.0523 95.7954 57.7132 93.9269 57.9563 91.9827C58.4452 87.9358 56.1004 84.1514 56.7069 80.1589C57.1038 78.1616 57.9352 76.2762 59.1423 74.6362C60.2921 72.907 61.6501 71.2593 62.7637 69.4033C65.0724 65.6824 66.1859 61.3186 67.0279 56.9457C67.8699 52.5729 68.4946 48.0462 70.1604 43.773C70.9616 41.6254 72.0619 39.6015 73.4287 37.7614C74.8069 35.9065 76.5946 34.3946 78.6526 33.3433L78.1908 33.0808C78.1908 33.2166 78.1908 33.3524 78.2361 33.4973C78.4896 35.8693 78.9151 38.187 79.1415 40.5046C79.4273 42.7954 79.5152 45.1066 79.404 47.4124C79.3582 48.5456 79.2555 49.6756 79.0962 50.7984C78.8036 51.8813 78.422 52.9381 77.9554 53.9581C77.0212 56.0226 76.2051 58.1385 75.511 60.2955C74.9076 62.448 74.5254 64.6564 74.3703 66.8865C74.1349 69.0684 73.8904 71.2321 73.655 73.3688C73.1661 77.6329 72.8493 81.8881 71.1201 85.5728C70.2147 87.3835 69.1283 89.1127 68.2863 90.9596C67.4577 92.7991 66.9964 94.7828 66.9283 96.7991C66.702 100.71 67.209 104.54 66.1497 107.998C65.0905 111.457 62.8905 114.336 61.7769 117.604C60.6633 120.872 61.0707 124.331 61.5596 127.364C62.0485 130.397 62.5374 133.384 61.8855 136.073C61.2337 138.762 59.3687 140.772 58.1555 142.927C57.5159 143.964 57.0882 145.118 56.8971 146.322C56.7603 147.421 56.6877 148.527 56.6798 149.635C56.6812 150.635 56.5348 151.63 56.2452 152.587C55.9099 153.416 55.3712 154.148 54.679 154.714C53.4864 155.676 52.1436 156.434 50.7045 156.959C49.6527 157.365 48.5642 157.668 47.4543 157.865C46.7759 157.988 46.0885 158.055 45.3992 158.064C44.8288 158.01 44.5843 158.01 44.5843 158.01Z" fill="#263238"/>
<path id="Vector_4" d="M76.6145 38.5947C76.5661 38.6918 76.5326 38.7955 76.5149 38.9025L76.2976 39.8079C76.0985 40.6136 75.854 41.8178 75.4738 43.3206C75.0935 44.8235 74.161 46.5256 73.3733 48.6169C72.4508 50.9713 71.6471 53.3704 70.9651 55.8054C70.1865 58.5214 69.5075 61.5091 68.7832 64.7321C68.1677 68.1651 67.0769 71.4956 65.5421 74.6275C64.7092 76.2753 63.7314 77.9411 63.0343 79.7699C62.3033 81.6375 61.8134 83.5907 61.5767 85.5822C61.0617 89.7069 60.3304 93.8017 59.3857 97.8497C57.3578 106.152 55.4203 114.064 53.6549 121.271C51.8895 128.478 50.2236 134.924 48.8475 140.374C47.4714 145.824 46.4302 150.17 45.6697 153.275C45.3166 154.76 45.036 155.928 44.8368 156.788C44.7553 157.159 44.6829 157.458 44.6286 157.693C44.6186 157.799 44.6186 157.905 44.6286 158.01C44.6812 157.916 44.7208 157.816 44.7463 157.711C44.8096 157.467 44.9002 157.177 45.0088 156.806C45.2352 155.964 45.552 154.796 45.9594 153.32C46.7742 150.242 47.924 145.869 49.3454 140.483C50.7668 135.096 52.4236 128.577 54.2796 121.416C56.1355 114.255 58.0187 106.288 60.0647 97.9764C61.0034 93.9178 61.7167 89.8103 62.2014 85.6728C62.4327 83.729 62.9072 81.8218 63.6137 79.9962C64.3289 78.1855 65.2433 76.565 66.0763 74.8992C67.8869 71.5946 68.6022 68.0457 69.3174 64.8498C70.0326 61.6539 70.6664 58.6301 71.4087 55.9321C72.1511 53.2342 72.9297 50.826 73.7083 48.7437C74.4869 46.6614 75.347 44.9412 75.7182 43.384C76.0894 41.8268 76.2614 40.668 76.4244 39.835C76.4847 39.4608 76.539 39.1591 76.5873 38.9297C76.6145 38.7034 76.6326 38.5947 76.6145 38.5947Z" fill="#263238"/>
<path id="Vector_5" d="M46.376 158.055C52.9941 154.117 54.8953 142.166 52.134 134.978C49.3727 127.789 44.5382 121.217 43.7958 113.548C43.2164 107.655 45.1538 101.607 43.7958 95.8488C41.9398 88.0719 34.353 82.0513 34.4435 74.0571C34.4888 69.5756 37.0419 65.3567 36.8337 60.8752C36.5892 55.3888 32.3703 51.025 29.7629 46.1905C25.7613 38.7757 25.4987 30.021 24.1316 21.7461C22.7646 13.4712 19.6049 4.54454 12.2354 0.461426C11.149 7.51408 9.293 12.3486 9.87242 21.9C10.0897 25.3313 14.0732 31.8589 14.6164 39.4185C14.9424 43.9452 15.1596 48.4177 15.4403 52.9082C15.721 57.3987 15.9926 61.7444 17.5588 65.8365C18.7629 68.9781 20.6913 71.8299 21.5876 75.0711C23.2625 81.1641 21.0535 87.7459 22.4115 93.9385C23.5613 99.1714 27.1827 103.671 27.925 108.976C28.9571 116.427 24.1407 124.177 26.6032 131.284C27.8345 134.815 30.7316 137.622 31.5555 141.288C32.1983 144.113 31.5012 147.11 32.0806 149.943C32.9859 154.524 41.7316 158.091 46.3941 157.793" fill="#FF2037"/>
<path id="Vector_6" d="M14.0465 7.42334C14.0341 7.55584 14.0341 7.68917 14.0465 7.82167C14.0465 8.12043 14.137 8.5007 14.1914 8.98054C14.3453 10.0036 14.5173 11.4974 14.8613 13.4348C15.2053 15.3723 16.2374 17.5632 17.0341 20.2068C17.8309 22.8505 18.7181 25.8743 19.4605 29.2603C20.2029 32.6463 20.8547 36.4216 21.5156 40.4685C22.1765 44.5154 22.9008 48.9245 24.9107 53.1434C25.816 55.2528 26.8843 57.3713 27.6267 59.6347C28.3874 61.9514 28.8557 64.3541 29.0209 66.7869C29.3911 71.9486 30.0409 77.0865 30.9674 82.1778C32.9954 92.6255 34.9238 102.575 36.6802 111.638C38.4366 120.7 40.202 128.785 41.6143 135.63C43.0267 142.474 44.1855 147.942 44.9913 151.799L45.8966 156.19C46.0053 156.661 46.0867 157.032 46.1592 157.322C46.1837 157.454 46.22 157.585 46.2678 157.711C46.2838 157.579 46.2838 157.445 46.2678 157.313C46.2135 157.014 46.1501 156.643 46.0686 156.163C45.8695 155.113 45.5888 153.628 45.2357 151.745C44.4752 147.879 43.425 142.356 42.0579 135.539C40.6909 128.722 39.0703 120.546 37.2687 111.52C35.467 102.494 33.6473 92.5079 31.6102 82.0692C30.6831 76.9776 30.0303 71.8399 29.6547 66.6783C29.4824 64.1952 28.9988 61.7437 28.2152 59.3812C27.4094 57.0816 26.3502 54.9541 25.4177 52.8537C23.4259 48.6981 22.7016 44.3615 22.0136 40.3327C21.3255 36.3039 20.6646 32.5196 19.8769 29.1154C19.0893 25.7113 18.2292 22.6694 17.342 20.062C16.4547 17.4546 15.4679 15.2455 15.0695 13.3534C14.6712 11.4612 14.4811 9.94019 14.2909 8.93525C14.2004 8.46447 14.128 8.08424 14.0737 7.78547C14.0718 7.66433 14.0627 7.54341 14.0465 7.42334Z" fill="#263238"/>
</g>
</svg>
