<svg width="15" height="14" viewBox="0 0 15 14" fill="none" xmlns="http://www.w3.org/2000/svg">
<g id="freepik--speech-bubble--inject-163">
<path id="Vector" d="M9.36697 8.15569H8.42612C8.42678 8.2624 8.40601 8.36816 8.36505 8.4667C8.32409 8.56523 8.26376 8.65454 8.18765 8.72934C8.11154 8.80413 8.02119 8.86289 7.92195 8.90213C7.82272 8.94137 7.71662 8.96029 7.60994 8.95777C7.4524 8.96342 7.29703 8.91977 7.16549 8.83291C7.03394 8.74606 6.93277 8.62032 6.87608 8.47323C6.82652 8.35074 6.80666 8.21827 6.8181 8.08664C6.82955 7.955 6.87198 7.82794 6.94194 7.71585C7.10188 7.45241 7.44999 7.21485 8.08036 7.3254V5.2085H7.15598V6.44571C6.77666 6.55738 6.44445 6.79042 6.21033 7.10909C5.97622 7.42775 5.85314 7.81443 5.85996 8.20979C5.85996 9.57872 7.08777 9.89626 7.61464 9.89626C8.01685 9.90567 9.38578 9.80923 9.36697 8.15569Z" fill="#FF2037"/>
<path id="Vector_2" d="M7.14882 4.78052H8.08731V3.90318H7.14882V4.78052Z" fill="#FF2037"/>
<path id="Vector_3" d="M14.4968 6.90439C14.5 6.86447 14.5 6.82436 14.4968 6.78444C14.4968 6.69976 14.4968 6.58451 14.4968 6.43632C14.4968 6.36105 14.4968 6.27403 14.4851 6.17994C14.4733 6.08586 14.4592 5.98236 14.4427 5.87417C14.4263 5.76597 14.4098 5.63896 14.391 5.51429L14.2922 5.11443C14.1175 4.42582 13.8315 3.77036 13.4454 3.17394C12.8849 2.29067 12.1293 1.5477 11.2367 1.00212C10.3442 0.456537 9.33836 0.122887 8.29667 0.0268133C7.98384 -0.000815124 7.6695 -0.00710151 7.35582 0.00799685C7.19823 0.00799685 7.03593 0.0079962 6.8854 0.0385737L6.40086 0.11149C5.73603 0.235053 5.09268 0.454523 4.49094 0.763025C3.86274 1.09544 3.28533 1.51603 2.77626 2.012C2.25503 2.54024 1.81936 3.14653 1.48494 3.80901C1.1251 4.492 0.889374 5.23344 0.788719 5.99883C0.759331 6.19275 0.742832 6.3884 0.739326 6.58451C0.723636 6.78089 0.719704 6.97803 0.727561 7.17489C0.778724 8.43667 1.17314 9.66058 1.86834 10.7148V10.6419C1.54139 11.4581 1.21915 12.2602 0.90397 13.0411L0.847521 13.1845L0.995706 13.1422L3.55951 12.4366L3.49835 12.4225C4.36181 13.0761 5.36769 13.5162 6.43379 13.7067C6.92833 13.7989 7.43236 13.8297 7.93444 13.7984C8.17656 13.7948 8.41802 13.772 8.65654 13.7302L9.007 13.6761C9.12226 13.655 9.24222 13.6197 9.34571 13.5938C10.9256 13.1934 12.3114 12.2437 13.2549 10.9147C13.6068 10.4252 13.8894 9.8893 14.0946 9.32237C14.1393 9.19771 14.1816 9.08715 14.2216 8.96484C14.2616 8.84254 14.2828 8.72963 14.3087 8.62379C14.3345 8.51794 14.3628 8.40975 14.3863 8.31096C14.4098 8.21217 14.4169 8.11573 14.431 8.024C14.4521 7.84289 14.4851 7.68294 14.4921 7.55358C14.4992 7.42421 14.4921 7.29955 14.4921 7.20076C14.4921 7.10197 14.4921 7.04082 14.4921 6.98672C14.4921 6.93262 14.4921 6.9138 14.4921 6.9138C14.4885 6.93797 14.4885 6.96255 14.4921 6.98672C14.4921 7.04082 14.4921 7.11138 14.4757 7.20076C14.4592 7.29014 14.4616 7.4148 14.4521 7.55122C14.4427 7.68765 14.4075 7.84759 14.3792 8.02165C14.1549 9.32345 13.5573 10.5321 12.6592 11.5008C11.7611 12.4695 10.601 13.1566 9.31983 13.4786C9.20928 13.5044 9.09874 13.5374 8.98584 13.5585L8.64007 13.6103C8.4068 13.6492 8.17092 13.6704 7.93444 13.6738C7.44155 13.6998 6.94731 13.6674 6.46202 13.5773C5.42083 13.3857 4.43892 12.9532 3.59479 12.3143L3.56656 12.2907H3.53128L0.965127 12.9964L1.05451 13.0975L2.02122 10.7007L2.03534 10.6631L2.01417 10.6278C1.55098 9.92704 1.22235 9.14615 1.0451 8.32507C0.963873 7.94414 0.91509 7.557 0.899268 7.16783C0.891406 6.97568 0.89533 6.78323 0.911026 6.59156C0.912477 6.40014 0.928204 6.20909 0.958071 6.02C1.04836 5.27255 1.27056 4.54705 1.61431 3.87722C1.94121 3.22979 2.36561 2.63641 2.87269 2.11784C3.37083 1.63094 3.93643 1.21823 4.5521 0.892391C5.14038 0.586389 5.77042 0.368453 6.42203 0.24556L6.89246 0.172645C7.05005 0.149124 7.20764 0.151475 7.36288 0.139715C7.66947 0.125128 7.97668 0.130628 8.28255 0.156179C9.30714 0.245871 10.2978 0.567855 11.1794 1.09768C12.0609 1.62751 12.8102 2.35124 13.3702 3.21393C13.7583 3.79994 14.049 4.44492 14.231 5.12384L14.3369 5.519C14.3581 5.64366 14.3769 5.75421 14.3957 5.87181C14.4145 5.98942 14.4286 6.08351 14.4451 6.17759C14.4616 6.27167 14.4569 6.35635 14.4639 6.43162C14.4639 6.57745 14.4827 6.6927 14.4898 6.77738C14.4853 6.81982 14.4877 6.86271 14.4968 6.90439Z" fill="#263238"/>
</g>
</svg>
