<svg width="235" height="27" viewBox="0 0 235 27" fill="none" xmlns="http://www.w3.org/2000/svg">
<g id="Group">
<g id="Group_2">
<g id="Group_3">
<path id="Vector" d="M0.936444 11.053V7.54938H2.6806C2.70094 8.19009 2.86875 8.663 3.18402 8.9681C3.49929 9.2732 3.86033 9.42067 4.26204 9.42067C4.57732 9.42067 4.84174 9.3088 5.0604 9.09014C5.27905 8.87149 5.38584 8.61215 5.38584 8.31722C5.38584 8.00195 5.27905 7.73753 5.06548 7.52396C4.85191 7.31039 4.46545 7.0663 3.90101 6.79171C2.71112 6.21711 1.90259 5.71369 1.48054 5.27129C1.0534 4.83398 0.84491 4.23903 0.84491 3.49154C0.84491 2.59149 1.12459 1.89484 1.68902 1.40159C2.25346 0.908345 2.88909 0.65918 3.60608 0.65918C4.42477 0.65918 5.05531 0.979535 5.50787 1.61516V0.76088H7.24696V3.88817H5.50787C5.45194 3.40509 5.28922 3.03388 5.00954 2.76946C4.72987 2.50504 4.40442 2.37283 4.0383 2.37283C3.75354 2.37283 3.50946 2.44911 3.31623 2.60166C3.11791 2.75421 3.0213 2.95252 3.0213 3.20169C3.0213 3.41526 3.10266 3.61358 3.26538 3.80681C3.4281 4.00004 3.9061 4.26446 4.69427 4.61532C5.45194 4.95602 6.03672 5.26112 6.44352 5.53571C6.85032 5.81031 7.17068 6.16626 7.40967 6.60357C7.64358 7.04088 7.76562 7.5443 7.76562 8.1189C7.76562 9.13591 7.47069 9.89866 6.87574 10.4122C6.28588 10.9258 5.58415 11.1801 4.77564 11.1801C3.87559 11.1801 3.17894 10.8445 2.69077 10.1783V11.053H0.936444Z" fill="#969696"/>
<path id="Vector_2" d="M9.10309 11.0531V9.31403H10.3896V2.50519H9.10309V0.766113H14.0712V2.50519H12.9931V4.76294H15.795V2.50519H14.7525V0.766113H19.685V2.50519H18.3985V9.31403H19.685V11.0531H14.7525V9.31403H15.795V6.50202H12.9931V9.31403H14.0712V11.0531H9.10309Z" fill="#969696"/>
<path id="Vector_3" d="M31.1111 9.31892V11.058H26.0516V9.31892H27.3686L26.8804 7.54933H24.2108L23.6616 9.31892H25.0396V11.058H20.4835V9.31892H21.7547L23.7582 2.51007H22.3903V0.770996H29.1076V2.51007H27.7245L29.8857 9.31892H31.1111ZM26.4584 6.03908L25.599 2.9423L24.6735 6.03908H26.4584Z" fill="#969696"/>
<path id="Vector_4" d="M31.9755 11.0531V9.31403H33.2417V2.50519H31.9755V0.766113H36.669C37.7114 0.766113 38.4843 0.827134 38.9928 0.949174C39.5013 1.07121 39.9386 1.36106 40.3098 1.82888C40.681 2.2967 40.8641 2.8408 40.8641 3.46626C40.8641 4.46801 40.381 5.17483 39.4149 5.58671C40.6455 6.04436 41.2658 6.86814 41.2658 8.04786C41.2658 8.72925 41.0726 9.30895 40.6912 9.79711C40.3098 10.2853 39.8166 10.6107 39.2115 10.7887C38.6064 10.9616 37.7622 11.0531 36.669 11.0531H31.9755ZM35.9215 4.82905H36.6741C37.1978 4.82905 37.5792 4.7426 37.8284 4.56462C38.0775 4.38665 38.1996 4.07646 38.1996 3.62389C38.1996 3.21709 38.0775 2.92725 37.8385 2.75944C37.5995 2.59163 37.1826 2.51028 36.5876 2.51028H35.9215V4.82905ZM35.9215 9.31912H36.6741C37.3605 9.31912 37.8385 9.2225 38.108 9.02419C38.3775 8.82587 38.5148 8.48009 38.5148 7.98176C38.5148 7.458 38.3674 7.09188 38.0724 6.88339C37.7775 6.67491 37.3097 6.56812 36.669 6.56812H35.9164V9.31912H35.9215Z" fill="#969696"/>
<path id="Vector_5" d="M42.4711 2.50519V0.766113H47.3832V2.50519H46.3713V7.15798C46.3713 7.77836 46.3967 8.22584 46.4476 8.50043C46.4984 8.77502 46.6357 8.99876 46.8595 9.17674C47.0832 9.35471 47.3629 9.44116 47.7036 9.44116C48.0545 9.44116 48.3443 9.3598 48.5782 9.19199C48.8121 9.02419 48.9596 8.8157 49.0257 8.56145C49.0918 8.31228 49.1274 7.7987 49.1274 7.02577V2.50519H48.1307V0.766113H52.2293V2.50519H50.9733V7.65123C50.9733 8.35296 50.9377 8.86147 50.8614 9.17674C50.7851 9.49201 50.6173 9.81236 50.3529 10.1226C50.0885 10.4327 49.702 10.6921 49.1935 10.8853C48.6901 11.0785 48.1053 11.1751 47.4544 11.1751C46.6968 11.1751 46.0459 11.0684 45.5119 10.8548C44.978 10.6412 44.5814 10.3565 44.317 10.0005C44.0576 9.64456 43.8898 9.29369 43.8135 8.94282C43.7373 8.59196 43.7017 7.99701 43.7017 7.1529V2.50011H42.4711V2.50519Z" fill="#969696"/>
<path id="Vector_6" d="M52.7223 14.0329V12.1667C53.0122 12.2532 53.2715 12.2939 53.4902 12.2939C53.897 12.2939 54.1919 12.182 54.3699 11.9532C54.5478 11.7243 54.6343 11.3277 54.6343 10.7531V2.50519H53.1037V0.766113H58.7074V2.50519H57.309V10.8548C57.309 11.9989 57.0293 12.843 56.4751 13.3973C55.9208 13.9516 55.1835 14.2211 54.258 14.2211C53.8054 14.2211 53.2918 14.1601 52.7223 14.0329Z" fill="#969696"/>
<path id="Vector_7" d="M70.7794 7.6005V5.86143H75.6C75.6 7.10726 75.3762 8.09883 74.9237 8.82599C74.4711 9.55824 73.8151 10.1278 72.9558 10.5498C72.0964 10.9719 71.1302 11.1804 70.0624 11.1804C68.2013 11.1804 66.7775 10.682 65.7859 9.68536C64.7943 8.6887 64.296 7.42253 64.296 5.89194C64.296 4.82917 64.54 3.88844 65.0333 3.06975C65.5265 2.25615 66.1876 1.64086 67.0215 1.22389C67.8555 0.812002 68.7606 0.603516 69.7369 0.603516C71.115 0.603516 72.193 0.939127 72.9608 1.61035V0.766236H74.705V4.41728H72.9608C72.7778 3.80199 72.4167 3.31383 71.8726 2.95788C71.3285 2.60193 70.7489 2.42395 70.1285 2.42395C69.3098 2.42395 68.6131 2.7138 68.0334 3.29349C67.4538 3.87318 67.169 4.67662 67.169 5.69871C67.169 6.87335 67.4639 7.76322 68.0487 8.37851C68.6335 8.9938 69.3505 9.2989 70.1946 9.2989C70.815 9.2989 71.3285 9.14635 71.7404 8.84633C72.1472 8.54632 72.432 8.12426 72.5896 7.59033H70.7794V7.6005Z" fill="#969696"/>
<path id="Vector_8" d="M77.1051 11.0531V9.31403H78.5746V2.50519H77.1051V0.766113H82.7545V2.50519H81.2544V9.31403H84.2953V6.1359H86.2988V11.0531H77.1051Z" fill="#969696"/>
<path id="Vector_9" d="M93.306 0.603516C95.0806 0.603516 96.479 1.1171 97.496 2.13919C98.513 3.16637 99.0215 4.4122 99.0215 5.88685C99.0215 7.36659 98.513 8.61751 97.4909 9.6396C96.4688 10.6617 95.0755 11.1753 93.306 11.1753C91.4652 11.1753 90.0566 10.6515 89.0701 9.59892C88.0836 8.54632 87.5904 7.31066 87.5904 5.89194C87.5904 4.42236 88.0989 3.17654 89.1108 2.14428C90.1227 1.12219 91.5211 0.603516 93.306 0.603516ZM93.306 2.48497C92.5178 2.48497 91.8465 2.7799 91.2974 3.37485C90.7482 3.96471 90.4736 4.83425 90.4736 5.97838C90.4736 6.9903 90.7431 7.79882 91.2872 8.40394C91.8313 9.00905 92.5025 9.31416 93.306 9.31416C94.0941 9.31416 94.7653 9.01922 95.3196 8.42428C95.8739 7.82933 96.1485 6.97504 96.1485 5.85634C96.1485 4.85459 95.8841 4.04607 95.3552 3.4257C94.8264 2.79516 94.145 2.48497 93.306 2.48497Z" fill="#969696"/>
<path id="Vector_10" d="M100.659 11.0531V9.31403H101.925V2.50519H100.659V0.766113H105.357C106.395 0.766113 107.173 0.827134 107.681 0.949174C108.19 1.07121 108.627 1.36106 108.998 1.82888C109.369 2.2967 109.552 2.8408 109.552 3.46626C109.552 4.46801 109.069 5.17483 108.103 5.58671C109.334 6.04436 109.954 6.86814 109.954 8.04786C109.954 8.72925 109.761 9.30895 109.38 9.79711C108.998 10.2853 108.505 10.6107 107.9 10.7887C107.295 10.9667 106.451 11.0531 105.357 11.0531H100.659ZM104.6 4.82905H105.352C105.876 4.82905 106.257 4.7426 106.507 4.56462C106.751 4.38665 106.878 4.07646 106.878 3.62389C106.878 3.21709 106.756 2.92725 106.517 2.75944C106.278 2.59163 105.861 2.51028 105.266 2.51028H104.6V4.82905ZM104.6 9.31912H105.352C106.039 9.31912 106.517 9.2225 106.786 9.02419C107.056 8.82587 107.193 8.48009 107.193 7.98176C107.193 7.458 107.046 7.09188 106.751 6.88339C106.456 6.67491 105.988 6.56812 105.347 6.56812H104.595V9.31912H104.6Z" fill="#969696"/>
<path id="Vector_11" d="M121.701 9.31892V11.058H116.641V9.31892H117.958L117.47 7.54933H114.8L114.251 9.31892H115.629V11.058H111.073V9.31892H112.344L114.348 2.51007H112.98V0.770996H119.697V2.51007H118.314L120.475 9.31892H121.701ZM117.048 6.03908L116.188 2.9423L115.263 6.03908H117.048Z" fill="#969696"/>
<path id="Vector_12" d="M122.484 11.0531V9.31403H123.953V2.50519H122.484V0.766113H128.133V2.50519H126.633V9.31403H129.674V6.1359H131.678V11.0531H122.484Z" fill="#969696"/>
<path id="Vector_13" d="M136.895 11.0531V9.31403H138.13V2.50519H136.895V0.766113H145.961V4.02561H143.994V2.50011H140.805V4.87481H143.378V6.61389H140.805V9.31403H143.994V7.77836H145.961V11.0531H136.895Z" fill="#969696"/>
<path id="Vector_14" d="M147.227 11.0531V9.31403H148.789V2.50519H147.227V0.766113H152.099C153.126 0.766113 153.95 0.827133 154.575 0.954258C155.201 1.08138 155.801 1.35597 156.37 1.7882C156.94 2.22043 157.403 2.79504 157.748 3.52219C158.094 4.24935 158.267 5.05278 158.267 5.93249C158.267 6.64948 158.145 7.33087 157.906 7.97667C157.662 8.62247 157.367 9.14623 157.006 9.54286C156.65 9.93949 156.223 10.2548 155.724 10.4887C155.226 10.7226 154.768 10.8751 154.352 10.9412C153.935 11.0073 153.289 11.0429 152.419 11.0429H147.227V11.0531ZM151.458 9.31912H152.099C152.877 9.31912 153.497 9.21742 153.95 9.01402C154.407 8.81062 154.774 8.45466 155.048 7.94616C155.323 7.43766 155.46 6.77152 155.46 5.94775C155.46 5.16465 155.323 4.49852 155.043 3.94934C154.763 3.40015 154.387 3.02386 153.909 2.81538C153.431 2.60689 152.831 2.50519 152.094 2.50519H151.453V9.31912H151.458Z" fill="#969696"/>
<path id="Vector_15" d="M159.665 2.50519V0.766113H164.578V2.50519H163.566V7.15798C163.566 7.77836 163.591 8.22584 163.642 8.50043C163.693 8.77502 163.83 8.99876 164.054 9.17674C164.278 9.35471 164.557 9.44116 164.898 9.44116C165.249 9.44116 165.539 9.3598 165.773 9.19199C166.006 9.02419 166.154 8.8157 166.22 8.56145C166.286 8.31228 166.322 7.7987 166.322 7.02577V2.50519H165.325V0.766113H169.424V2.50519H168.168V7.65123C168.168 8.35296 168.132 8.86147 168.056 9.17674C167.979 9.49201 167.812 9.81236 167.547 10.1226C167.283 10.4327 166.896 10.6921 166.388 10.8853C165.879 11.0785 165.3 11.1751 164.649 11.1751C163.891 11.1751 163.24 11.0684 162.706 10.8548C162.172 10.6412 161.776 10.3565 161.511 10.0005C161.252 9.64456 161.084 9.29369 161.008 8.94282C160.932 8.59196 160.896 7.99701 160.896 7.1529V2.50011H159.665V2.50519Z" fill="#969696"/>
<path id="Vector_16" d="M179.273 0.76632H181.012V4.39194H179.273C178.78 3.09017 177.926 2.43929 176.705 2.43929C175.699 2.43929 174.941 2.77999 174.422 3.46647C173.909 4.15294 173.649 4.97163 173.649 5.92762C173.649 6.92936 173.924 7.73788 174.468 8.35825C175.012 8.97863 175.709 9.28881 176.548 9.28881C177.239 9.28881 177.839 9.0549 178.358 8.58708C178.877 8.11926 179.228 7.46838 179.405 6.63443L181.434 7.60059C180.667 9.99055 178.973 11.1855 176.354 11.1855C174.504 11.1855 173.11 10.6872 172.175 9.69053C171.234 8.69387 170.766 7.43278 170.766 5.91236C170.766 4.82925 171.01 3.87835 171.498 3.06475C171.986 2.25115 172.642 1.64094 173.471 1.22906C174.295 0.81717 175.205 0.61377 176.187 0.61377C177.412 0.61377 178.444 0.934125 179.268 1.57484V0.76632H179.273Z" fill="#969696"/>
<path id="Vector_17" d="M192.509 9.31892V11.058H187.45V9.31892H188.767L188.279 7.54933H185.609L185.06 9.31892H186.438V11.058H181.882V9.31892H183.153L185.157 2.51007H183.789V0.770996H190.506V2.51007H189.123L191.284 9.31892H192.509ZM187.857 6.03908L186.997 2.9423L186.077 6.03908H187.857Z" fill="#969696"/>
<path id="Vector_18" d="M194.656 11.0531V9.31403H196.201V2.50519H194.656V4.90024H192.886V0.766113H202.212V4.90024H200.468V2.50519H198.876V9.31403H200.422V11.0531H194.656Z" fill="#969696"/>
<path id="Vector_19" d="M203.386 11.0531V9.31403H204.948V2.50519H203.386V0.766113H209.199V2.50519H207.622V9.31403H209.199V11.0531H203.386Z" fill="#969696"/>
<path id="Vector_20" d="M216.358 0.603516C218.133 0.603516 219.531 1.1171 220.548 2.13919C221.565 3.16637 222.074 4.4122 222.074 5.88685C222.074 7.36659 221.565 8.61751 220.543 9.6396C219.521 10.6617 218.128 11.1753 216.358 11.1753C214.518 11.1753 213.109 10.6515 212.123 9.59892C211.136 8.54632 210.643 7.31066 210.643 5.89194C210.643 4.42236 211.151 3.17654 212.163 2.14428C213.175 1.11202 214.574 0.603516 216.358 0.603516ZM216.358 2.48497C215.57 2.48497 214.899 2.7799 214.35 3.37485C213.801 3.96471 213.526 4.83425 213.526 5.97838C213.526 6.9903 213.796 7.79882 214.34 8.40394C214.884 9.00905 215.555 9.31416 216.358 9.31416C217.147 9.31416 217.818 9.01922 218.372 8.42428C218.926 7.82933 219.201 6.97504 219.201 5.85634C219.201 4.85459 218.936 4.04607 218.408 3.4257C217.879 2.79516 217.192 2.48497 216.358 2.48497Z" fill="#969696"/>
<path id="Vector_21" d="M223.615 11.0533V9.31423H224.993V2.50539H223.615V0.766315H227.937L231.72 7.17853V2.50031H230.383V0.76123H235V2.50031H233.556V11.1245H231.263L226.823 3.50206V9.31423H228.115V11.0533H223.615Z" fill="#969696"/>
</g>
<g id="Group_4">
<path id="Vector_22" d="M0.382241 10.5041V7.00055H2.1264C2.14674 7.64127 2.31455 8.11417 2.62982 8.41927C2.94509 8.72438 3.30613 8.87184 3.70784 8.87184C4.02312 8.87184 4.28753 8.75997 4.50619 8.54132C4.72484 8.32266 4.83164 8.06332 4.83164 7.76839C4.83164 7.45312 4.72485 7.1887 4.51128 6.97513C4.29771 6.76156 3.91124 6.51748 3.3468 6.24289C2.15691 5.66828 1.34839 5.16486 0.926338 4.72246C0.499196 4.28515 0.29071 3.69021 0.29071 2.94271C0.29071 2.04266 0.570388 1.34601 1.13483 0.852764C1.69926 0.359517 2.33489 0.110352 3.05188 0.110352C3.87057 0.110352 4.50111 0.430708 4.95367 1.06634V0.212052H6.69275V3.33934H4.95367C4.89774 2.85626 4.73502 2.48506 4.45534 2.22064C4.17567 1.95621 3.85022 1.824 3.4841 1.824C3.19934 1.824 2.95526 1.90028 2.76203 2.05283C2.56371 2.20538 2.4671 2.4037 2.4671 2.65286C2.4671 2.86643 2.54846 3.06475 2.71118 3.25798C2.8739 3.45121 3.3519 3.71563 4.14007 4.0665C4.89774 4.40719 5.48251 4.71229 5.88931 4.98689C6.29612 5.26148 6.61648 5.61743 6.85547 6.05474C7.08938 6.49205 7.21142 6.99547 7.21142 7.57008C7.21142 8.58708 6.91649 9.34983 6.32154 9.86342C5.73168 10.377 5.02995 10.6313 4.22143 10.6313C3.32138 10.6313 2.62474 10.2956 2.13658 9.62951V10.5041H0.382241Z" fill="#15156B"/>
<path id="Vector_23" d="M8.54883 10.5038V8.76472H9.83534V1.95587H8.54883V0.216797H13.5169V1.95587H12.4389V4.21362H15.2407V1.95587H14.1983V0.216797H19.1308V1.95587H17.8442V8.76472H19.1308V10.5038H14.1983V8.76472H15.2407V5.9527H12.4389V8.76472H13.5169V10.5038H8.54883Z" fill="#15156B"/>
<path id="Vector_24" d="M30.5567 8.76472V10.5038H25.4971V8.76472H26.8141L26.3259 6.99513H23.6563L23.1071 8.76472H24.4851V10.5038H19.929V8.76472H21.2002L23.2037 1.95587H21.8358V0.216797H28.5532V1.95587H27.17L29.3312 8.76472H30.5567ZM25.9039 5.48996L25.0445 2.39319L24.119 5.48996H25.9039Z" fill="#15156B"/>
<path id="Vector_25" d="M31.4263 10.5038V8.76472H32.6925V1.95587H31.4263V0.216797H36.1198C37.1622 0.216797 37.9352 0.277817 38.4437 0.399858C38.9522 0.521898 39.3895 0.811744 39.7607 1.27957C40.1319 1.74739 40.315 2.29149 40.315 2.91694C40.315 3.91869 39.8319 4.62551 38.8657 5.0374C40.0963 5.49505 40.7167 6.31882 40.7167 7.49855C40.7167 8.17994 40.5234 8.75963 40.1421 9.24779C39.7607 9.73596 39.2674 10.0614 38.6623 10.2394C38.0572 10.4123 37.2131 10.5038 36.1198 10.5038H31.4263ZM35.3672 4.27464H36.1198C36.6436 4.27464 37.0249 4.1882 37.2741 4.01022C37.5233 3.83225 37.6453 3.52206 37.6453 3.06949C37.6453 2.66269 37.5233 2.37285 37.2843 2.20504C37.0453 2.03723 36.6283 1.95587 36.0334 1.95587H35.3672V4.27464ZM35.3672 8.76472H36.1198C36.8063 8.76472 37.2843 8.6681 37.5538 8.46979C37.8233 8.27147 37.9606 7.92569 37.9606 7.42736C37.9606 6.9036 37.8131 6.53748 37.5182 6.32899C37.2233 6.12051 36.7554 6.01372 36.1147 6.01372H35.3621V8.76472H35.3672Z" fill="#15156B"/>
<path id="Vector_26" d="M41.9218 1.95587V0.216797H46.8339V1.95587H45.822V6.60867C45.822 7.22904 45.8474 7.67652 45.8982 7.95111C45.9491 8.22571 46.0864 8.44944 46.3101 8.62742C46.5339 8.8054 46.8135 8.89184 47.1542 8.89184C47.5051 8.89184 47.795 8.81048 48.0289 8.64268C48.2628 8.47487 48.4102 8.26638 48.4763 8.01213C48.5424 7.76297 48.5781 7.24938 48.5781 6.47646V1.95587H47.5814V0.216797H51.6799V1.95587H50.4239V7.10191C50.4239 7.80365 50.3883 8.31215 50.312 8.62742C50.2358 8.94269 50.068 9.26305 49.8035 9.57323C49.5391 9.88342 49.1527 10.1428 48.6442 10.336C48.1407 10.5292 47.556 10.6258 46.9051 10.6258C46.1474 10.6258 45.4965 10.519 44.9626 10.3055C44.4287 10.0919 44.032 9.80714 43.7676 9.45119C43.5083 9.09524 43.3405 8.74438 43.2642 8.39351C43.1879 8.04264 43.1523 7.4477 43.1523 6.60358V1.95079H41.9218V1.95587Z" fill="#15156B"/>
<path id="Vector_27" d="M52.1732 13.4836V11.6174C52.463 11.7039 52.7223 11.7445 52.941 11.7445C53.3478 11.7445 53.6427 11.6327 53.8207 11.4038C53.9987 11.175 54.0851 10.7784 54.0851 10.2038V1.95587H52.5545V0.216797H58.1582V1.95587H56.7598V10.3055C56.7598 11.4496 56.4802 12.2937 55.9259 12.848C55.3716 13.3972 54.6343 13.6718 53.7088 13.6718C53.2512 13.6667 52.7376 13.6057 52.1732 13.4836Z" fill="#15156B"/>
<path id="Vector_28" d="M70.2251 7.05119V5.31211H75.0457C75.0457 6.55794 74.8219 7.54952 74.3694 8.27668C73.9168 9.00892 73.2608 9.57844 72.4015 10.0005C71.5421 10.4226 70.5759 10.631 69.5081 10.631C67.647 10.631 66.2232 10.1327 65.2316 9.13605C64.24 8.13938 63.7417 6.87321 63.7417 5.34262C63.7417 4.27985 63.9857 3.33912 64.479 2.52044C64.9722 1.70683 65.6333 1.09154 66.4672 0.674572C67.3012 0.262686 68.2063 0.0541992 69.1826 0.0541992C70.5607 0.0541992 71.6387 0.38981 72.4065 1.06103V0.21692H74.1507V3.86796H72.4065C72.2235 3.25268 71.8625 2.76452 71.3184 2.40856C70.7743 2.05261 70.1946 1.87464 69.5742 1.87464C68.7555 1.87464 68.0588 2.16448 67.4792 2.74418C66.8995 3.32387 66.6147 4.1273 66.6147 5.14939C66.6147 6.32403 66.9096 7.21391 67.4944 7.8292C68.0792 8.44448 68.7962 8.74959 69.6403 8.74959C70.2607 8.74959 70.7743 8.59703 71.1861 8.29702C71.5929 7.997 71.8777 7.57494 72.0353 7.04102H70.2251V7.05119Z" fill="#15156B"/>
<path id="Vector_29" d="M76.5508 10.5038V8.76472H78.0204V1.95587H76.5508V0.216797H82.2002V1.95587H80.7002V8.76472H83.741V5.58658H85.7445V10.5038H76.5508Z" fill="#15156B"/>
<path id="Vector_30" d="M92.7516 0.0541992C94.5263 0.0541992 95.9247 0.567786 96.9417 1.58988C97.9587 2.61705 98.4672 3.86288 98.4672 5.33754C98.4672 6.81728 97.9587 8.06819 96.9366 9.09028C95.9145 10.1124 94.5212 10.626 92.7516 10.626C90.9109 10.626 89.5023 10.1022 88.5158 9.0496C87.5293 7.997 87.0361 6.76134 87.0361 5.34262C87.0361 3.87305 87.5446 2.62722 88.5565 1.59496C89.5684 0.567788 90.9668 0.0541992 92.7516 0.0541992ZM92.7516 1.93057C91.9635 1.93057 91.2922 2.2255 90.743 2.82045C90.1939 3.41031 89.9193 4.27985 89.9193 5.42398C89.9193 6.4359 90.1888 7.24442 90.7329 7.84954C91.277 8.45465 91.9482 8.75976 92.7516 8.75976C93.5398 8.75976 94.211 8.46482 94.7653 7.86988C95.3196 7.27493 95.5942 6.42064 95.5942 5.30194C95.5942 4.30019 95.3297 3.49167 94.8009 2.8713C94.272 2.25093 93.5907 1.93057 92.7516 1.93057Z" fill="#15156B"/>
<path id="Vector_31" d="M100.105 10.5038V8.76472H101.371V1.95587H100.105V0.216797H104.803C105.841 0.216797 106.619 0.277817 107.127 0.399858C107.636 0.521898 108.073 0.811744 108.444 1.27957C108.815 1.74739 108.998 2.29149 108.998 2.91694C108.998 3.91869 108.515 4.62551 107.549 5.0374C108.78 5.49505 109.4 6.31882 109.4 7.49855C109.4 8.17994 109.207 8.75963 108.825 9.24779C108.444 9.73596 107.951 10.0614 107.346 10.2394C106.741 10.4173 105.897 10.5038 104.803 10.5038H100.105ZM104.046 4.27464H104.798C105.322 4.27464 105.703 4.1882 105.952 4.01022C106.197 3.83225 106.324 3.52206 106.324 3.06949C106.324 2.66269 106.202 2.37285 105.963 2.20504C105.724 2.03723 105.307 1.95587 104.712 1.95587H104.046V4.27464ZM104.046 8.76472H104.798C105.485 8.76472 105.963 8.6681 106.232 8.46979C106.502 8.27147 106.639 7.92569 106.639 7.42736C106.639 6.9036 106.491 6.53748 106.197 6.32899C105.902 6.12051 105.434 6.01372 104.793 6.01372H104.04V8.76472H104.046Z" fill="#15156B"/>
<path id="Vector_32" d="M121.146 8.76472V10.5038H116.087V8.76472H117.404L116.916 6.99513H114.246L113.697 8.76472H115.075V10.5038H110.519V8.76472H111.79L113.793 1.95587H112.426V0.216797H119.143V1.95587H117.76L119.921 8.76472H121.146ZM116.494 5.48996L115.634 2.39319L114.709 5.48996H116.494Z" fill="#15156B"/>
<path id="Vector_33" d="M121.93 10.5038V8.76472H123.399V1.95587H121.93V0.216797H127.579V1.95587H126.079V8.76472H129.12V5.58658H131.123V10.5038H121.93Z" fill="#15156B"/>
<path id="Vector_34" d="M136.341 10.5038V8.76472H137.576V1.95587H136.341V0.216797H145.407V3.47629H143.439V1.95079H140.251V4.32549H142.824V6.06457H140.251V8.76472H143.439V7.22904H145.407V10.5038H136.341Z" fill="#15156B"/>
<path id="Vector_35" d="M146.673 10.5038V8.76472H148.234V1.95587H146.673V0.216797H151.545C152.572 0.216797 153.396 0.277819 154.021 0.404944C154.646 0.53207 155.246 0.80666 155.816 1.23889C156.386 1.67111 156.848 2.24572 157.194 2.97288C157.54 3.70004 157.713 4.50347 157.713 5.38318C157.713 6.10016 157.591 6.78156 157.352 7.42736C157.108 8.07315 156.813 8.59691 156.452 8.99354C156.096 9.39017 155.669 9.70545 155.17 9.93936C154.672 10.1733 154.214 10.3258 153.797 10.3919C153.38 10.458 152.734 10.4936 151.865 10.4936H146.673V10.5038ZM150.904 8.76472H151.545C152.323 8.76472 152.943 8.66302 153.396 8.45962C153.853 8.25622 154.219 7.90026 154.494 7.39176C154.768 6.88326 154.906 6.21712 154.906 5.39335C154.906 4.61025 154.768 3.94412 154.489 3.39493C154.209 2.84575 153.833 2.46946 153.355 2.26098C152.877 2.05249 152.277 1.95079 151.539 1.95079H150.899V8.76472H150.904Z" fill="#15156B"/>
<path id="Vector_36" d="M159.111 1.95587V0.216797H164.023V1.95587H163.011V6.60867C163.011 7.22904 163.037 7.67652 163.088 7.95111C163.139 8.22571 163.276 8.44944 163.5 8.62742C163.723 8.8054 164.003 8.89184 164.344 8.89184C164.695 8.89184 164.984 8.81048 165.218 8.64268C165.452 8.47487 165.6 8.26638 165.666 8.01213C165.732 7.76297 165.768 7.24938 165.768 6.47646V1.95587H164.771V0.216797H168.869V1.95587H167.613V7.10191C167.613 7.80365 167.578 8.31215 167.502 8.62742C167.425 8.94269 167.257 9.26305 166.993 9.57323C166.729 9.88342 166.342 10.1428 165.834 10.336C165.325 10.5292 164.745 10.6258 164.095 10.6258C163.337 10.6258 162.686 10.519 162.152 10.3055C161.618 10.0919 161.222 9.80714 160.957 9.45119C160.698 9.09524 160.53 8.74438 160.454 8.39351C160.377 8.04264 160.342 7.4477 160.342 6.60358V1.95079H159.111V1.95587Z" fill="#15156B"/>
<path id="Vector_37" d="M178.719 0.217003H180.458V3.84262H178.719C178.226 2.54086 177.371 1.88998 176.151 1.88998C175.144 1.88998 174.387 2.23067 173.868 2.91715C173.354 3.60363 173.095 4.42232 173.095 5.3783C173.095 6.38005 173.37 7.18857 173.914 7.80894C174.458 8.42931 175.154 8.7395 175.993 8.7395C176.685 8.7395 177.285 8.50559 177.804 8.03776C178.322 7.56994 178.673 6.91906 178.851 6.08512L180.88 7.05127C180.112 9.44123 178.419 10.6362 175.8 10.6362C173.949 10.6362 172.556 10.1379 171.62 9.14122C170.68 8.14455 170.212 6.88347 170.212 5.36305C170.212 4.27994 170.456 3.32904 170.944 2.51543C171.432 1.70183 172.088 1.09163 172.917 0.67974C173.741 0.267853 174.651 0.0644531 175.632 0.0644531C176.858 0.0644531 177.89 0.384809 178.714 1.02552V0.217003H178.719Z" fill="#15156B"/>
<path id="Vector_38" d="M191.955 8.76472V10.5038H186.896V8.76472H188.213L187.725 6.99513H185.06L184.511 8.76472H185.889V10.5038H181.333V8.76472H182.604L184.607 1.95587H183.24V0.216797H189.957V1.95587H188.574L190.735 8.76472H191.955ZM187.308 5.48996L186.448 2.39319L185.523 5.48996H187.308Z" fill="#15156B"/>
<path id="Vector_39" d="M194.101 10.5038V8.76472H195.647V1.95587H194.101V4.35092H192.332V0.216797H201.657V4.35092H199.913V1.95587H198.322V8.76472H199.868V10.5038H194.101Z" fill="#15156B"/>
<path id="Vector_40" d="M202.832 10.5038V8.76472H204.393V1.95587H202.832V0.216797H208.644V1.95587H207.068V8.76472H208.644V10.5038H202.832Z" fill="#15156B"/>
<path id="Vector_41" d="M215.804 0.0541992C217.579 0.0541992 218.977 0.567786 219.994 1.58988C221.011 2.61705 221.52 3.86288 221.52 5.33754C221.52 6.81728 221.011 8.06819 219.989 9.09028C218.967 10.1124 217.574 10.626 215.804 10.626C213.963 10.626 212.555 10.1022 211.568 9.0496C210.582 7.997 210.089 6.76134 210.089 5.34262C210.089 3.87305 210.597 2.62722 211.609 1.59496C212.621 0.562703 214.019 0.0541992 215.804 0.0541992ZM215.804 1.93057C215.016 1.93057 214.345 2.2255 213.796 2.82045C213.246 3.41031 212.972 4.27985 212.972 5.42398C212.972 6.4359 213.241 7.24442 213.785 7.84954C214.329 8.45465 215.001 8.75976 215.804 8.75976C216.592 8.75976 217.263 8.46482 217.818 7.86988C218.372 7.27493 218.647 6.42064 218.647 5.30194C218.647 4.30019 218.382 3.49167 217.853 2.8713C217.324 2.24076 216.643 1.93057 215.804 1.93057Z" fill="#15156B"/>
<path id="Vector_42" d="M223.06 10.504V8.76492H224.438V1.95608H223.06V0.216998H227.383L231.166 6.62921V1.95099H229.829V0.211914H234.446V1.95099H233.002V10.5752H230.708L226.269 2.95274V8.76492H227.561V10.504H223.06Z" fill="#15156B"/>
</g>
</g>
<g id="Group_5">
<path id="Vector_43" d="M32.6925 23.8878L30.7043 16.0518H31.7721L32.7027 20.013C32.9366 20.9893 33.1451 21.9656 33.2824 22.7233H33.3078C33.4349 21.9453 33.679 21.0147 33.9485 20.0028L34.996 16.0518H36.0537L37.0046 20.0282C37.2233 20.9588 37.4369 21.8894 37.5487 22.7131H37.5742C37.7369 21.8538 37.9555 20.9791 38.1996 20.0028L39.2319 16.0518H40.2641L38.042 23.8878H36.9843L35.9978 19.8096C35.7537 18.8078 35.591 18.0451 35.4842 17.2518H35.4588C35.3215 18.0298 35.1435 18.7977 34.8537 19.8096L33.74 23.8878H32.6925Z" fill="#333333"/>
<path id="Vector_44" d="M46.4983 21.0301C46.4983 23.1099 45.0593 24.015 43.6965 24.015C42.1761 24.015 41.0014 22.9014 41.0014 21.1216C41.0014 19.2402 42.232 18.1367 43.7931 18.1367C45.4051 18.1367 46.4983 19.3114 46.4983 21.0301ZM42.0337 21.086C42.0337 22.3166 42.7405 23.2472 43.7423 23.2472C44.7186 23.2472 45.4508 22.3268 45.4508 21.0606C45.4508 20.1046 44.9728 18.8995 43.7677 18.8995C42.5575 18.9046 42.0337 20.0182 42.0337 21.086Z" fill="#333333"/>
<path id="Vector_45" d="M48.3696 20.0182C48.3696 19.3571 48.3594 18.7876 48.3238 18.2638H49.2188L49.2543 19.3673H49.3001C49.5544 18.6096 50.1697 18.1367 50.8561 18.1367C50.9731 18.1367 51.0544 18.1469 51.146 18.1723V19.1385C51.0392 19.1181 50.9375 19.1029 50.7951 19.1029C50.073 19.1029 49.5645 19.647 49.4221 20.4148C49.3967 20.5521 49.3764 20.7148 49.3764 20.8928V23.893H48.3645V20.0182H48.3696Z" fill="#333333"/>
<path id="Vector_46" d="M52.7935 15.6348H53.8156V23.8878H52.7935V15.6348Z" fill="#333333"/>
<path id="Vector_47" d="M60.9755 15.6348V22.4334C60.9755 22.9318 60.9857 23.5013 61.0213 23.8878H60.1009L60.0551 22.9114H60.0297C59.7144 23.5369 59.0279 24.0149 58.1126 24.0149C56.7549 24.0149 55.7074 22.8657 55.7074 21.1571C55.6972 19.2858 56.8566 18.1366 58.2296 18.1366C59.0889 18.1366 59.6686 18.5434 59.928 18.996H59.9534V15.6348H60.9755ZM59.9534 20.552C59.9534 20.4249 59.9432 20.252 59.9076 20.1198C59.7551 19.4689 59.2008 18.9349 58.433 18.9349C57.3753 18.9349 56.7498 19.8655 56.7498 21.1113C56.7498 22.2504 57.3092 23.1911 58.4126 23.1911C59.0991 23.1911 59.7246 22.7385 59.9127 21.9707C59.9483 21.8283 59.9585 21.691 59.9585 21.5283V20.552H59.9534Z" fill="#333333"/>
<path id="Vector_48" d="M63.6602 18.2639L64.4026 21.1217C64.5654 21.7471 64.7179 22.3319 64.8196 22.9116H64.8552C64.9823 22.3421 65.1705 21.7369 65.3535 21.1318L66.2739 18.2588H67.1333L68.0028 21.0708C68.2113 21.7471 68.374 22.337 68.5012 22.9065H68.5368C68.6283 22.337 68.7809 21.742 68.969 21.081L69.7724 18.2588H70.7843L68.969 23.8828H68.0384L67.1791 21.1979C66.9807 20.5725 66.818 20.0131 66.6807 19.3521H66.6553C66.518 20.0284 66.34 20.6081 66.1417 21.2132L65.2366 23.8879H64.306L62.6076 18.2639H63.6602Z" fill="#333333"/>
<path id="Vector_49" d="M73.5253 16.6822C73.5355 17.0331 73.2812 17.3077 72.8744 17.3077C72.5134 17.3077 72.2592 17.028 72.2592 16.6822C72.2592 16.3212 72.5287 16.0415 72.8999 16.0415C73.2812 16.0415 73.5253 16.3212 73.5253 16.6822ZM72.3863 23.8877V18.2637H73.4084V23.8877H72.3863Z" fill="#333333"/>
<path id="Vector_50" d="M80.5477 15.6348V22.4334C80.5477 22.9318 80.5578 23.5013 80.5934 23.8878H79.673L79.6273 22.9114H79.6018C79.2866 23.5369 78.6001 24.0149 77.6848 24.0149C76.3271 24.0149 75.2796 22.8657 75.2796 21.1571C75.2694 19.2858 76.4288 18.1366 77.8018 18.1366C78.6611 18.1366 79.2408 18.5434 79.5002 18.996H79.5256V15.6348H80.5477ZM79.5205 20.552C79.5205 20.4249 79.5103 20.252 79.4747 20.1198C79.3222 19.4689 78.7679 18.9349 78.0001 18.9349C76.9424 18.9349 76.3169 19.8655 76.3169 21.1113C76.3169 22.2504 76.8763 23.1911 77.9797 23.1911C78.6662 23.1911 79.2917 22.7385 79.4798 21.9707C79.5154 21.8283 79.5256 21.691 79.5256 21.5283V20.552H79.5205Z" fill="#333333"/>
<path id="Vector_51" d="M83.3902 21.2638C83.4156 22.6469 84.2953 23.2164 85.3174 23.2164C86.0496 23.2164 86.492 23.0893 86.8734 22.9266L87.0463 23.6588C86.6853 23.8216 86.07 24.0097 85.175 24.0097C83.441 24.0097 82.4088 22.8707 82.4088 21.1723C82.4088 19.4739 83.4105 18.1416 85.0479 18.1416C86.8836 18.1416 87.3717 19.7586 87.3717 20.7909C87.3717 20.9994 87.3463 21.1621 87.3361 21.2689H83.3902V21.2638ZM86.3903 20.5316C86.4005 19.8807 86.1208 18.8688 84.9716 18.8688C83.9393 18.8688 83.4817 19.8247 83.4003 20.5316H86.3903Z" fill="#333333"/>
<path id="Vector_52" d="M93.3162 16.0566V20.6942C93.3162 22.4485 94.0943 23.1909 95.1418 23.1909C96.3062 23.1909 97.0487 22.4231 97.0487 20.6942V16.0566H98.0707V20.623C98.0707 23.0282 96.8046 24.0147 95.1062 24.0147C93.5044 24.0147 92.2942 23.0943 92.2942 20.6688V16.0566H93.3162Z" fill="#333333"/>
<path id="Vector_53" d="M100.369 19.7891C100.369 19.2095 100.359 18.7315 100.323 18.2687H101.229L101.284 19.1993H101.31C101.59 18.6654 102.24 18.1416 103.171 18.1416C103.949 18.1416 105.159 18.6043 105.159 20.5366V23.8978H104.137V20.6536C104.137 19.7485 103.802 18.9908 102.835 18.9908C102.159 18.9908 101.64 19.4688 101.462 20.0383C101.417 20.1654 101.391 20.3383 101.391 20.5163V23.8978H100.369V19.7891Z" fill="#333333"/>
<path id="Vector_54" d="M108.536 16.6822C108.546 17.0331 108.292 17.3077 107.885 17.3077C107.524 17.3077 107.269 17.028 107.269 16.6822C107.269 16.3212 107.539 16.0415 107.91 16.0415C108.292 16.0415 108.536 16.3212 108.536 16.6822ZM107.397 23.8877V18.2637H108.419V23.8877H107.397Z" fill="#333333"/>
<path id="Vector_55" d="M111.093 18.2637L112.197 21.4266C112.385 21.9351 112.532 22.4029 112.649 22.8656H112.685C112.812 22.4029 112.975 21.9351 113.163 21.4266L114.256 18.2637H115.324L113.117 23.8877H112.141L110 18.2637H111.093Z" fill="#333333"/>
<path id="Vector_56" d="M117.322 21.2638C117.348 22.6469 118.228 23.2164 119.25 23.2164C119.982 23.2164 120.424 23.0893 120.806 22.9266L120.979 23.6588C120.618 23.8216 120.002 24.0097 119.107 24.0097C117.373 24.0097 116.341 22.8707 116.341 21.1723C116.341 19.4739 117.343 18.1416 118.98 18.1416C120.816 18.1416 121.304 19.7586 121.304 20.7909C121.304 20.9994 121.279 21.1621 121.268 21.2689H117.322V21.2638ZM120.317 20.5316C120.328 19.8807 120.048 18.8688 118.899 18.8688C117.867 18.8688 117.409 19.8247 117.327 20.5316H120.317Z" fill="#333333"/>
<path id="Vector_57" d="M123.155 20.0182C123.155 19.3571 123.145 18.7876 123.109 18.2638H124.004L124.04 19.3673H124.086C124.34 18.6096 124.955 18.1367 125.642 18.1367C125.758 18.1367 125.84 18.1469 125.931 18.1723V19.1385C125.825 19.1181 125.723 19.1029 125.581 19.1029C124.858 19.1029 124.35 19.647 124.208 20.4148C124.182 20.5521 124.162 20.7148 124.162 20.8928V23.893H123.15V20.0182H123.155Z" fill="#333333"/>
<path id="Vector_58" d="M127.396 22.8454C127.696 23.0438 128.235 23.2522 128.744 23.2522C129.486 23.2522 129.837 22.881 129.837 22.4132C129.837 21.9251 129.547 21.6556 128.789 21.381C127.777 21.0199 127.299 20.4606 127.299 19.7894C127.299 18.8842 128.032 18.1367 129.242 18.1367C129.811 18.1367 130.31 18.2994 130.625 18.4876L130.371 19.23C130.152 19.0876 129.745 18.9046 129.222 18.9046C128.616 18.9046 128.281 19.2554 128.281 19.6724C128.281 20.1402 128.616 20.3487 129.349 20.6233C130.325 20.9945 130.823 21.4827 130.823 22.3217C130.823 23.3082 130.055 24.0048 128.718 24.0048C128.103 24.0048 127.533 23.8523 127.137 23.6235L127.396 22.8454Z" fill="#333333"/>
<path id="Vector_59" d="M133.854 16.6822C133.864 17.0331 133.61 17.3077 133.203 17.3077C132.842 17.3077 132.588 17.028 132.588 16.6822C132.588 16.3212 132.857 16.0415 133.229 16.0415C133.61 16.0415 133.854 16.3212 133.854 16.6822ZM132.715 23.8877V18.2637H133.737V23.8877H132.715Z" fill="#333333"/>
<path id="Vector_60" d="M137.251 16.6465V18.2635H138.715V19.0415H137.251V22.0773C137.251 22.7739 137.449 23.1706 138.019 23.1706C138.288 23.1706 138.486 23.135 138.614 23.0994L138.659 23.8672C138.461 23.9486 138.146 24.0096 137.754 24.0096C137.276 24.0096 136.895 23.857 136.651 23.5774C136.361 23.2773 136.254 22.7739 136.254 22.1129V19.0466H135.385V18.2686H136.254V16.916L137.251 16.6465Z" fill="#333333"/>
<path id="Vector_61" d="M140.922 18.2637L142.153 21.5893C142.28 21.9605 142.422 22.4029 142.514 22.7385H142.534C142.641 22.4029 142.753 21.9707 142.895 21.5638L144.009 18.2637H145.092L143.556 22.2758C142.824 24.203 142.326 25.1946 141.629 25.7997C141.131 26.2421 140.627 26.415 140.373 26.4607L140.119 25.6014C140.373 25.52 140.714 25.3573 141.014 25.103C141.293 24.8844 141.639 24.4877 141.873 23.964C141.919 23.8572 141.954 23.7758 141.954 23.7199C141.954 23.664 141.929 23.5826 141.883 23.4504L139.803 18.2637H140.922Z" fill="#333333"/>
<path id="Vector_62" d="M150.95 21.4264L150.136 23.8927H149.089L151.748 16.0566H152.969L155.643 23.8927H154.56L153.721 21.4264H150.95ZM153.518 20.6332L152.75 18.3805C152.577 17.8669 152.46 17.4042 152.343 16.9516H152.318C152.201 17.4143 152.074 17.8923 151.921 18.3703L151.153 20.6382H153.518V20.6332Z" fill="#333333"/>
<path id="Vector_63" d="M162.061 15.6348V22.4334C162.061 22.9318 162.071 23.5013 162.106 23.8878H161.186L161.14 22.9114H161.115C160.8 23.5369 160.113 24.0149 159.198 24.0149C157.84 24.0149 156.793 22.8657 156.793 21.1571C156.782 19.2858 157.942 18.1366 159.315 18.1366C160.174 18.1366 160.754 18.5434 161.013 18.996H161.039V15.6348H162.061ZM161.039 20.552C161.039 20.4249 161.028 20.252 160.993 20.1198C160.84 19.4689 160.286 18.9349 159.518 18.9349C158.46 18.9349 157.835 19.8655 157.835 21.1113C157.835 22.2504 158.394 23.1911 159.498 23.1911C160.184 23.1911 160.81 22.7385 160.998 21.9707C161.033 21.8283 161.044 21.691 161.044 21.5283V20.552H161.039Z" fill="#333333"/>
<path id="Vector_64" d="M164.334 19.7891C164.334 19.2095 164.323 18.7315 164.288 18.2687H165.183L165.228 19.1739H165.264C165.579 18.6399 166.103 18.1416 167.029 18.1416C167.796 18.1416 168.376 18.6043 168.62 19.2705H168.646C168.819 18.9552 169.042 18.7111 169.271 18.5382C169.607 18.284 169.978 18.1416 170.517 18.1416C171.259 18.1416 172.363 18.6298 172.363 20.5824V23.8978H171.361V20.7146C171.361 19.6366 170.964 18.9806 170.141 18.9806C169.561 18.9806 169.103 19.4129 168.93 19.9112C168.885 20.0485 168.849 20.2366 168.849 20.4248V23.8978H167.847V20.5265C167.847 19.6315 167.451 18.9806 166.673 18.9806C166.032 18.9806 165.569 19.4942 165.406 20.0027C165.351 20.1553 165.325 20.3282 165.325 20.5011V23.8928H164.323V19.7891H164.334Z" fill="#333333"/>
<path id="Vector_65" d="M175.744 16.6822C175.754 17.0331 175.5 17.3077 175.093 17.3077C174.732 17.3077 174.478 17.028 174.478 16.6822C174.478 16.3212 174.748 16.0415 175.119 16.0415C175.5 16.0415 175.744 16.3212 175.744 16.6822ZM174.605 23.8877V18.2637H175.627V23.8877H174.605Z" fill="#333333"/>
<path id="Vector_66" d="M177.768 22.8454C178.068 23.0438 178.607 23.2522 179.116 23.2522C179.858 23.2522 180.209 22.881 180.209 22.4132C180.209 21.9251 179.919 21.6556 179.161 21.381C178.15 21.0199 177.672 20.4606 177.672 19.7894C177.672 18.8842 178.404 18.1367 179.614 18.1367C180.184 18.1367 180.682 18.2994 180.997 18.4876L180.743 19.23C180.524 19.0876 180.117 18.9046 179.594 18.9046C178.989 18.9046 178.653 19.2554 178.653 19.6724C178.653 20.1402 178.989 20.3487 179.721 20.6233C180.697 20.9945 181.195 21.4827 181.195 22.3217C181.195 23.3082 180.428 24.0048 179.09 24.0048C178.475 24.0048 177.905 23.8523 177.509 23.6235L177.768 22.8454Z" fill="#333333"/>
<path id="Vector_67" d="M182.95 22.8454C183.25 23.0438 183.789 23.2522 184.297 23.2522C185.04 23.2522 185.391 22.881 185.391 22.4132C185.391 21.9251 185.101 21.6556 184.343 21.381C183.331 21.0199 182.853 20.4606 182.853 19.7894C182.853 18.8842 183.585 18.1367 184.796 18.1367C185.365 18.1367 185.863 18.2994 186.179 18.4876L185.924 19.23C185.706 19.0876 185.299 18.9046 184.775 18.9046C184.17 18.9046 183.834 19.2554 183.834 19.6724C183.834 20.1402 184.17 20.3487 184.902 20.6233C185.879 20.9945 186.377 21.4827 186.377 22.3217C186.377 23.3082 185.609 24.0048 184.272 24.0048C183.657 24.0048 183.087 23.8523 182.69 23.6235L182.95 22.8454Z" fill="#333333"/>
<path id="Vector_68" d="M189.413 16.6822C189.423 17.0331 189.169 17.3077 188.762 17.3077C188.401 17.3077 188.147 17.028 188.147 16.6822C188.147 16.3212 188.416 16.0415 188.787 16.0415C189.169 16.0415 189.413 16.3212 189.413 16.6822ZM188.274 23.8877V18.2637H189.296V23.8877H188.274Z" fill="#333333"/>
<path id="Vector_69" d="M196.664 21.0301C196.664 23.1099 195.225 24.015 193.862 24.015C192.342 24.015 191.167 22.9014 191.167 21.1216C191.167 19.2402 192.398 18.1367 193.959 18.1367C195.571 18.1367 196.664 19.3114 196.664 21.0301ZM192.199 21.086C192.199 22.3166 192.906 23.2472 193.908 23.2472C194.884 23.2472 195.617 22.3268 195.617 21.0606C195.617 20.1046 195.139 18.8995 193.933 18.8995C192.723 18.9046 192.199 20.0182 192.199 21.086Z" fill="#333333"/>
<path id="Vector_70" d="M198.53 19.7891C198.53 19.2095 198.52 18.7315 198.485 18.2687H199.39L199.446 19.1993H199.471C199.751 18.6654 200.402 18.1416 201.332 18.1416C202.11 18.1416 203.32 18.6043 203.32 20.5366V23.8978H202.298V20.6536C202.298 19.7485 201.963 18.9908 200.997 18.9908C200.32 18.9908 199.802 19.4688 199.624 20.0383C199.578 20.1654 199.552 20.3383 199.552 20.5163V23.8978H198.53V19.7891Z" fill="#333333"/>
</g>
</g>
</svg>
