<svg width="24" height="24" viewBox="0 0 24 24" fill="none" xmlns="http://www.w3.org/2000/svg">
<g id="Iconsans/Bold/Tick-Circle">
<path id="Vector" d="M12 3C10.22 3 8.47991 3.52784 6.99987 4.51677C5.51983 5.50571 4.36628 6.91131 3.68509 8.55585C3.0039 10.2004 2.82567 12.01 3.17294 13.7558C3.5202 15.5016 4.37737 17.1053 5.63604 18.364C6.89472 19.6226 8.49836 20.4798 10.2442 20.8271C11.99 21.1743 13.7996 20.9961 15.4442 20.3149C17.0887 19.6337 18.4943 18.4802 19.4832 17.0001C20.4722 15.5201 21 13.78 21 12C21 9.61305 20.0518 7.32387 18.364 5.63604C16.6761 3.94821 14.387 3 12 3ZM16 10.12L11.19 14.93C11.1211 15.0006 11.0386 15.0565 10.9475 15.0943C10.8564 15.1321 10.7586 15.151 10.66 15.15C10.5615 15.1505 10.4638 15.1312 10.3728 15.0935C10.2818 15.0557 10.1992 15.0001 10.13 14.93L8 12.74C7.90861 12.599 7.86719 12.4315 7.88238 12.2642C7.89757 12.0969 7.96848 11.9395 8.08376 11.8173C8.19904 11.6951 8.35201 11.6152 8.51815 11.5903C8.68428 11.5654 8.85397 11.597 9 11.68L10.66 13.34L15 9.06C15.146 8.97697 15.3157 8.94537 15.4819 8.97027C15.648 8.99517 15.801 9.07512 15.9162 9.19732C16.0315 9.31952 16.1024 9.47688 16.1176 9.64418C16.1328 9.81148 16.0914 9.97904 16 10.12Z" fill="#3B82F6"/>
</g>
</svg>
