<svg width="166" height="50" viewBox="0 0 166 50" fill="none" xmlns="http://www.w3.org/2000/svg">
<g id="PSI Logo 1" clip-path="url(#clip0_220_505)">
<path id="Vector" d="M85.1963 11.9082H91.9428L91.8123 12.9385H88.9834L87.5899 22.9803H86.4606L87.8541 12.9385H85.1124L85.1963 11.9082Z" fill="#002A4E"/>
<path id="Vector_2" d="M100.216 19.1181H92.7709C92.7709 20.1049 93.0324 20.8771 93.5548 21.4346C94.0773 21.9927 94.774 22.2932 95.687 22.2932C96.2431 22.2916 96.7928 22.1746 97.3 21.9498C97.7878 21.7326 98.2084 21.3919 98.5192 20.9624L99.303 21.6064C98.8908 22.1301 98.3518 22.5434 97.7353 22.8083C97.0809 23.1184 96.3648 23.2814 95.6386 23.2853C94.3336 23.2853 93.3321 22.8989 92.6787 22.0833C92.0322 21.3269 91.6776 20.3696 91.6772 19.3805C91.6804 18.5516 91.9031 17.7379 92.3223 17.0195C92.7465 16.282 93.369 15.6741 94.1211 15.2626C94.8446 14.8387 95.6727 14.6188 96.5142 14.6267C97.5596 14.6267 98.474 14.9701 99.1707 15.6983C99.8674 16.4279 100.243 17.3995 100.216 18.4011C100.303 18.6014 100.259 18.8177 100.216 19.1181ZM99.2579 18.2167C99.2145 17.444 98.9531 16.8001 98.474 16.3279C97.958 15.8453 97.2691 15.583 96.558 15.5981C95.7617 15.5814 94.982 15.8227 94.3387 16.2849C93.6973 16.7579 93.2247 17.4192 92.9886 18.1738H99.2579V18.2167Z" fill="#002A4E"/>
<path id="Vector_3" d="M106.788 15.7272L106.222 16.5858C105.738 15.9498 105.179 15.5985 104.569 15.5985C104.219 15.601 103.88 15.7223 103.611 15.9419C103.496 16.0384 103.403 16.1565 103.335 16.2892C103.268 16.4219 103.228 16.5665 103.219 16.7146C103.231 16.9447 103.306 17.1672 103.436 17.3585C103.611 17.5731 103.959 17.8355 104.482 18.1741C105.266 18.6892 105.788 19.1185 106.048 19.5048C106.313 19.898 106.45 20.3619 106.44 20.834C106.442 21.1549 106.378 21.4729 106.252 21.7683C106.124 22.0637 105.937 22.3301 105.701 22.5511C105.217 23.0281 104.572 23.2379 103.785 23.2379C102.74 23.2379 101.869 22.8086 101.172 21.9072L101.825 21.1774C102.435 21.9072 103.132 22.2904 103.828 22.2904C104.03 22.2974 104.231 22.2628 104.419 22.1889C104.606 22.115 104.776 22.0033 104.917 21.8611C105.222 21.5606 105.401 21.2601 105.401 20.8737C105.383 20.5453 105.261 20.2305 105.053 19.9739C104.922 19.8021 104.486 19.4969 103.877 19.0724C103.18 18.5954 102.701 18.2138 102.483 17.9133C102.259 17.615 102.137 17.2542 102.135 16.8831C102.129 16.5909 102.189 16.3011 102.309 16.034C102.429 15.767 102.608 15.5293 102.831 15.3377C103.307 14.9112 103.931 14.6832 104.574 14.7017C104.965 14.6961 105.353 14.7846 105.702 14.9593C106.135 14.9991 106.44 15.2996 106.788 15.7272Z" fill="#002A4E"/>
<path id="Vector_4" d="M110.32 11.7368H111.363L110.93 14.8276H112.626L112.495 15.7275H110.794L109.792 23.0235H108.707L109.708 15.7275H108.272L108.402 14.8276H109.836L110.32 11.7368Z" fill="#002A4E"/>
<path id="Vector_5" d="M114.102 14.8276H115.104L114.059 23.0235H113.014L114.102 14.8276ZM114.973 11.4363C115.087 11.4373 115.2 11.4606 115.305 11.5048C115.409 11.549 115.504 11.6133 115.583 11.6939C115.681 11.7935 115.754 11.9154 115.793 12.0489C115.833 12.1825 115.839 12.3236 115.81 12.4598C115.782 12.5961 115.72 12.7233 115.63 12.8305C115.54 12.9376 115.424 13.0213 115.294 13.0743C115.163 13.1273 115.021 13.1479 114.881 13.1343C114.741 13.1208 114.605 13.0734 114.488 12.9965C114.37 12.9196 114.274 12.8153 114.207 12.693C114.139 12.5707 114.103 12.434 114.102 12.2949C114.103 12.1826 114.127 12.0717 114.172 11.9685C114.217 11.8654 114.282 11.772 114.363 11.6939C114.44 11.61 114.534 11.5435 114.64 11.499C114.745 11.4545 114.859 11.4332 114.973 11.4363Z" fill="#002A4E"/>
<path id="Vector_6" d="M117.454 14.8274H118.499L118.325 16.1137C119.152 15.1279 120.154 14.6128 121.286 14.6128C122.156 14.6128 122.855 14.8698 123.383 15.3839C123.905 15.899 124.167 16.5859 124.167 17.4873C124.152 18.0774 124.094 18.6657 123.992 19.2474L123.47 23.0234H122.417L122.939 19.2474C123.043 18.6515 123.101 18.0488 123.113 17.4444C123.131 17.1921 123.093 16.939 123.003 16.7022C122.913 16.4654 122.773 16.2503 122.591 16.0714C122.41 15.8925 122.192 15.7539 121.952 15.6649C121.712 15.576 121.455 15.5387 121.199 15.5556C120.645 15.5451 120.1 15.6943 119.631 15.9849C119.161 16.2704 118.773 16.6693 118.502 17.1439C118.241 17.6209 118.018 18.3888 117.892 19.462L117.409 23.0234H116.363L117.454 14.8274Z" fill="#002A4E"/>
<path id="Vector_7" d="M134.085 14.8272H135.13L134.172 21.7815C133.998 22.8944 133.824 23.6703 133.606 24.1425C133.27 24.7844 132.757 25.3196 132.125 25.6863C131.365 26.0958 130.511 26.303 129.645 26.2872C128.687 26.2872 127.903 26.1155 127.25 25.7292C126.584 25.3529 126.053 24.784 125.727 24.0995L126.683 23.7561C127.25 24.7864 128.251 25.3015 129.645 25.3015C130.297 25.3278 130.944 25.1794 131.517 24.8722C131.994 24.6157 132.386 24.2294 132.646 23.7593C132.777 23.5017 132.907 22.9008 133.082 21.9564L133.125 21.6559C132.716 22.1231 132.207 22.496 131.636 22.7482C131.064 23.0004 130.443 23.1258 129.818 23.1154C128.688 23.1154 127.72 22.772 127.03 22.0851C126.34 21.3983 125.987 20.4952 125.987 19.3823C125.985 18.5663 126.208 17.7652 126.632 17.0642C127.052 16.3477 127.657 15.7532 128.385 15.3408C129.068 14.9362 129.847 14.7168 130.643 14.7048C131.252 14.6885 131.854 14.837 132.383 15.1341C132.949 15.4603 133.428 15.9162 133.777 16.4633L134.085 14.8272ZM130.908 15.5984C130.22 15.596 129.543 15.7738 128.948 16.1135C128.374 16.4297 127.893 16.8885 127.554 17.4442C127.217 18.0167 127.049 18.6712 127.071 19.333C127.071 20.1492 127.332 20.7925 127.855 21.2632C128.377 21.7401 129.074 21.9929 129.951 21.9929C130.441 22.0062 130.929 21.9218 131.385 21.7447C131.841 21.5677 132.256 21.3017 132.606 20.9627C132.949 20.6268 133.219 20.2251 133.399 19.7824C133.579 19.3397 133.665 18.8653 133.651 18.3886C133.651 17.4871 133.346 16.7574 132.78 16.2852C132.254 15.853 131.593 15.6107 130.908 15.5984Z" fill="#002A4E"/>
<path id="Vector_8" d="M92.7267 27.3574L92.5524 28.4306H87.5028L87.0186 32.0779H92.0687L91.9382 33.1511H86.8927L86.3269 37.3992H91.3765L91.2461 38.4725H85.0653L86.5879 27.3574H92.7267Z" fill="#002A4E"/>
<path id="Vector_9" d="M93.2924 30.2764H94.5135L96.5152 33.4943L98.9102 30.2764H100.216L97.1247 34.4387L99.6489 38.4755H98.4297L96.47 35.2957L94.1197 38.4755H92.8134L95.8604 34.3561L93.2924 30.2764Z" fill="#002A4E"/>
<path id="Vector_10" d="M109.748 32.035L108.877 32.5501C108.268 31.5628 107.309 31.0906 106.046 31.0906C105.351 31.0907 104.664 31.2542 104.045 31.5676C103.458 31.8825 102.963 32.3408 102.608 32.8983C102.268 33.4537 102.09 34.0908 102.093 34.7394C102.083 35.2791 102.219 35.8119 102.485 36.2832C102.731 36.7402 103.11 37.114 103.574 37.3564C104.069 37.6198 104.624 37.7529 105.187 37.7428C105.813 37.748 106.434 37.6184 107.005 37.3628C107.571 37.1052 108.05 36.8047 108.355 36.3754L109.225 36.9765C108.736 37.5328 108.126 37.973 107.44 38.2643C106.722 38.5498 105.955 38.6955 105.182 38.6935C103.875 38.6935 102.831 38.3501 102.09 37.6204C101.35 36.8906 101.001 35.9891 101.001 34.7887C100.992 34.1629 101.115 33.5419 101.362 32.9654C101.61 32.389 101.976 31.8696 102.439 31.4404C102.912 30.9902 103.471 30.637 104.083 30.4015C104.696 30.166 105.351 30.0527 106.008 30.0683C106.777 30.0544 107.538 30.2293 108.222 30.5771C108.861 30.9112 109.389 31.4167 109.748 32.035Z" fill="#002A4E"/>
<path id="Vector_11" d="M119.632 34.5684H112.187C112.187 35.5563 112.448 36.3284 112.971 36.8849C113.494 37.443 114.19 37.7435 115.105 37.7435C115.661 37.7422 116.211 37.6251 116.718 37.4C117.205 37.1816 117.624 36.8398 117.934 36.4095L118.718 37.0455C118.305 37.5692 117.766 37.9825 117.15 38.2475C116.496 38.5579 115.779 38.7208 115.053 38.7244C113.747 38.7244 112.745 38.3381 112.092 37.5225C111.445 36.7659 111.091 35.8088 111.09 34.8196C111.094 33.9908 111.316 33.177 111.736 32.4586C112.156 31.722 112.773 31.1133 113.521 30.6986C114.246 30.2754 115.074 30.0554 115.916 30.0627C116.959 30.0627 117.874 30.4061 118.571 31.1343C119.267 31.8639 119.643 32.8354 119.616 33.8371C119.665 34.078 119.671 34.3256 119.632 34.5684ZM118.631 33.6669C118.587 32.8943 118.326 32.2504 117.847 31.7782C117.331 31.2958 116.643 31.0335 115.932 31.0484C115.134 31.031 114.353 31.2723 113.708 31.7352C113.067 32.2082 112.594 32.8695 112.358 33.624H118.627L118.631 33.6669Z" fill="#002A4E"/>
<path id="Vector_12" d="M122.548 27.1001H123.593L122.025 38.4759H120.981L122.548 27.1001Z" fill="#002A4E"/>
<path id="Vector_13" d="M125.683 27.1001H126.727L125.159 38.4759H124.114L125.683 27.1001Z" fill="#002A4E"/>
<path id="Vector_14" d="M136.087 34.5674H128.642C128.642 35.5553 128.903 36.3275 129.426 36.8839C129.948 37.442 130.645 37.7425 131.559 37.7425C132.115 37.741 132.665 37.624 133.172 37.3991C133.66 37.1819 134.081 36.8413 134.391 36.4118L135.175 37.0477C134.763 37.5714 134.224 37.9847 133.608 38.2497C132.953 38.5599 132.237 38.7228 131.511 38.7266C130.204 38.7266 129.203 38.3403 128.549 37.5247C127.903 36.7681 127.548 35.8109 127.548 34.8219C127.551 33.9929 127.774 33.1792 128.193 32.4608C128.619 31.723 129.243 31.1152 129.996 30.704C130.72 30.2809 131.548 30.061 132.39 30.068C133.435 30.068 134.349 30.4114 135.047 31.1396C135.743 31.8692 136.119 32.8409 136.091 33.8424C136.133 34.0825 136.132 34.3279 136.087 34.5674ZM135.085 33.666C135.041 32.8933 134.78 32.2494 134.301 31.7772C133.785 31.2946 133.097 31.0323 132.385 31.0474C131.589 31.0309 130.809 31.2722 130.166 31.7343C129.524 32.2072 129.052 32.8685 128.816 33.623H135.085V33.666Z" fill="#002A4E"/>
<path id="Vector_15" d="M138.785 30.2762H139.835L139.661 31.5624C140.488 30.5767 141.49 30.0615 142.621 30.0615C143.491 30.0615 144.19 30.3186 144.717 30.8327C145.24 31.3478 145.501 32.0346 145.501 32.9361C145.484 33.5263 145.423 34.1146 145.319 34.6961L144.793 38.4753H143.748L144.271 34.6993C144.374 34.1034 144.432 33.5008 144.445 32.8963C144.463 32.6435 144.426 32.3898 144.336 32.1522C144.246 31.9147 144.106 31.6989 143.924 31.5195C143.743 31.34 143.524 31.201 143.283 31.1119C143.043 31.0228 142.785 30.9855 142.529 31.0028C141.975 30.9922 141.431 31.1414 140.963 31.432C140.492 31.7176 140.104 32.1165 139.833 32.5911C139.572 33.0681 139.35 33.836 139.224 34.9092L138.74 38.4705H137.695L138.785 30.2762Z" fill="#002A4E"/>
<path id="Vector_16" d="M156.07 32.0351L155.199 32.5502C154.59 31.5628 153.632 31.0906 152.37 31.0906C151.674 31.0905 150.987 31.254 150.367 31.5676C149.78 31.8826 149.286 32.3408 148.93 32.8984C148.587 33.4543 148.405 34.0932 148.408 34.7442C148.398 35.284 148.533 35.8166 148.8 36.2881C149.045 36.745 149.424 37.1188 149.888 37.3612C150.383 37.6246 150.939 37.7577 151.501 37.7476C152.131 37.7525 152.754 37.6212 153.327 37.3628C153.893 37.1052 154.372 36.8047 154.677 36.3755L155.548 36.9765C155.059 37.5328 154.448 37.9731 153.763 38.2643C153.045 38.5499 152.278 38.6957 151.505 38.6936C150.198 38.6936 149.153 38.3501 148.412 37.6204C147.672 36.8906 147.324 35.9891 147.324 34.7887C147.314 34.1629 147.438 33.542 147.685 32.9655C147.932 32.389 148.298 31.8696 148.761 31.4404C149.234 30.9901 149.794 30.6369 150.407 30.4014C151.019 30.1658 151.674 30.0526 152.332 30.0683C153.104 30.0556 153.866 30.2326 154.551 30.5835C155.186 30.9168 155.713 31.42 156.07 32.0351Z" fill="#002A4E"/>
<path id="Vector_17" d="M165.95 34.5682H158.505C158.505 35.5561 158.767 36.3282 159.289 36.8847C159.811 37.4428 160.508 37.7433 161.423 37.7433C161.979 37.7421 162.529 37.6251 163.036 37.3998C163.523 37.1827 163.944 36.8421 164.255 36.4125L165.039 37.0485C164.627 37.5722 164.088 37.9855 163.471 38.2505C162.819 38.5597 162.106 38.7226 161.382 38.7274C160.076 38.7274 159.075 38.3411 158.421 37.5255C157.775 36.7688 157.421 35.8116 157.421 34.8226C157.425 33.9937 157.647 33.18 158.067 32.4616C158.487 31.725 159.105 31.1162 159.852 30.7016C160.576 30.2783 161.405 30.0584 162.247 30.0656C163.29 30.0656 164.205 30.4091 164.902 31.1372C165.598 31.8668 165.974 32.8384 165.947 33.8401C166.037 34.0531 165.994 34.2677 165.95 34.5682ZM164.992 33.6667C164.949 32.8941 164.687 32.2501 164.208 31.778C163.693 31.2956 163.005 31.0333 162.294 31.0482C161.497 31.0315 160.717 31.2727 160.073 31.735C159.431 32.208 158.959 32.8693 158.723 33.6238H164.995L164.992 33.6667Z" fill="#002A4E"/>
<path id="Vector_18" d="M72.1173 43.8464C72.1201 44.174 72.0546 44.4986 71.9255 44.8004C71.741 45.2416 71.4261 45.6182 71.0222 45.881C70.6182 46.1441 70.1433 46.2814 69.6591 46.276C69.323 46.2801 68.9891 46.2182 68.677 46.0946C68.3888 45.981 68.1282 45.8091 67.9111 45.5905C67.6934 45.3714 67.5228 45.1113 67.4094 44.8258C67.2862 44.5187 67.2249 44.1909 67.2286 43.8607C67.2249 43.5406 67.2863 43.2228 67.408 42.9261C67.5302 42.6294 67.7109 42.3596 67.9401 42.1325C68.1633 41.9129 68.428 41.7384 68.7189 41.619C69.0251 41.4922 69.3548 41.4283 69.6868 41.4313C70.0234 41.4274 70.3577 41.489 70.6708 41.6126C70.9585 41.7281 71.22 41.8989 71.4399 42.115C71.6571 42.3336 71.8273 42.5931 71.9398 42.8781C72.062 43.1866 72.1224 43.5154 72.1173 43.8464ZM71.6336 43.8846C71.6368 43.5997 71.5866 43.3166 71.4851 43.0499C71.3915 42.8133 71.2518 42.5972 71.0738 42.4139C70.8981 42.2355 70.6865 42.0952 70.4527 42.0021C70.2074 41.9055 69.945 41.8569 69.6803 41.859C69.4032 41.8566 69.1289 41.9107 68.8739 42.018C68.6387 42.1192 68.4266 42.2657 68.2495 42.4489C68.0761 42.6306 67.9401 42.8439 67.8497 43.0769C67.7538 43.3185 67.7049 43.5758 67.7063 43.8353C67.7026 44.1203 67.7534 44.4035 67.8562 44.67C67.9484 44.9067 68.0877 45.1229 68.2657 45.3059C68.44 45.4841 68.6507 45.6241 68.8835 45.716C69.3968 45.9137 69.9676 45.9087 70.4771 45.7019C70.7123 45.6014 70.9249 45.4546 71.101 45.271C71.2744 45.0894 71.41 44.8761 71.4994 44.643C71.593 44.3996 71.6401 44.1415 71.6382 43.8814L71.6336 43.8846ZM70.8059 45.077C70.8078 45.0918 70.8078 45.1067 70.8059 45.1215C70.8022 45.1289 70.7967 45.1353 70.7902 45.1402C70.7833 45.1452 70.7755 45.1486 70.7672 45.1501C70.7363 45.1578 70.7045 45.1631 70.6722 45.166C70.6155 45.1691 70.5583 45.1691 70.5011 45.166C70.4509 45.1688 70.4001 45.1688 70.3494 45.166C70.3153 45.1632 70.2816 45.1557 70.2498 45.1438C70.2263 45.1344 70.2055 45.1203 70.1885 45.1024C70.171 45.0821 70.159 45.0582 70.153 45.0325L70.011 44.5794C69.9759 44.4441 69.904 44.321 69.803 44.2232C69.6965 44.147 69.5664 44.1104 69.435 44.1199H69.2543V45.0643C69.2552 45.0808 69.2515 45.0972 69.2437 45.1118C69.2358 45.1264 69.2238 45.1386 69.2095 45.147C69.1381 45.1691 69.0629 45.1777 68.9882 45.1724C68.9098 45.1776 68.8314 45.1689 68.7563 45.147C68.7401 45.1397 68.7268 45.1281 68.7175 45.1133C68.7083 45.0986 68.7037 45.0816 68.7046 45.0643V42.7112C68.7009 42.6414 68.7226 42.5726 68.766 42.5172C68.7899 42.4917 68.8194 42.4719 68.8526 42.4593C68.8854 42.4466 68.9209 42.4414 68.9559 42.4441H69.6481C69.8062 42.4418 69.9635 42.4589 70.1175 42.495C70.2341 42.523 70.3439 42.5738 70.4398 42.6444C70.5237 42.7074 70.5892 42.7906 70.6302 42.8861C70.6727 42.9868 70.6943 43.095 70.6934 43.2041C70.698 43.2908 70.6856 43.3776 70.656 43.4594C70.6265 43.5413 70.5814 43.6166 70.5223 43.6811C70.3946 43.7999 70.2369 43.8823 70.0658 43.9196C70.1742 43.9564 70.2733 44.0161 70.3559 44.0944C70.4619 44.2006 70.5435 44.3281 70.5947 44.4681L70.764 44.9005C70.7838 44.9578 70.7972 45.017 70.8045 45.077H70.8059ZM70.0884 43.2725C70.0884 43.2239 70.081 43.1756 70.0658 43.1294C70.0497 43.0839 70.022 43.0433 69.9851 43.0117C69.9386 42.9731 69.8832 42.9459 69.8237 42.9322C69.7407 42.9111 69.655 42.9015 69.5692 42.9036H69.2464V43.6811H69.5563C69.7048 43.6968 69.8537 43.6571 69.9741 43.5698C70.0133 43.5307 70.0437 43.4842 70.0644 43.4331C70.0847 43.3821 70.0949 43.3274 70.093 43.2725H70.0884Z" fill="#9E0442"/>
<path id="Vector_19" fill-rule="evenodd" clip-rule="evenodd" d="M73.2364 21.2331C73.2364 12.5809 67.8156 4.89214 59.4289 0C69.5462 4.76973 76.2881 13.2709 76.2798 22.9598C76.2798 37.889 60.3415 49.9882 40.6776 49.9882C30.0697 49.9882 20.5522 46.4586 14.0282 40.8716C20.3151 45.29 28.7278 47.9927 37.9712 47.9927C57.4498 47.9927 73.2364 36.0192 73.2364 21.2331ZM16.8545 49.9923C6.74015 45.2243 0 36.7263 0 27.0279C0 12.1066 15.94 0.0106475 35.604 0.0106475C46.2135 0.0106475 55.734 3.53546 62.2551 9.12077C55.9683 4.70086 47.5539 1.99803 38.3121 1.99803C18.8351 1.99803 3.04671 13.9748 3.04671 28.7609C3.04671 37.4131 8.46757 45.1003 16.8545 49.9923Z" fill="#9E0442"/>
<path id="Vector_20" d="M31.1872 29.0668C30.2367 29.9709 28.9384 30.4234 27.2921 30.4245C25.6459 30.4256 24.3486 29.973 23.4003 29.0668C22.4326 28.1605 21.96 26.9061 21.96 25.2939C21.96 23.6818 22.4438 22.4321 23.4003 21.5274C24.3567 20.6228 25.6583 20.1633 27.2921 20.1633C28.926 20.1633 30.2243 20.6164 31.1824 21.5211C32.1404 22.4257 32.6146 23.6833 32.6146 25.2939C32.6146 26.9045 32.1308 28.1557 31.1872 29.0668ZM27.5744 17.7784C25.226 17.7784 23.3546 18.6073 21.96 20.265V18.133H19.3536V37.5219H21.9632V30.3116C23.4299 31.9588 25.2922 32.7813 27.5502 32.7792C29.8556 32.7792 31.734 32.0934 33.1856 30.7218C34.6371 29.3503 35.3629 27.5389 35.3629 25.2875C35.3629 23.032 34.6393 21.2174 33.192 19.8437C31.7485 18.4684 29.8728 17.7769 27.5776 17.7769L27.5744 17.7784Z" fill="#002A4E"/>
<path id="Vector_21" d="M50.1942 25.3563C49.5266 24.8761 48.4356 24.5152 46.9203 24.2736L43.7704 23.7632C42.7092 23.5899 42.0059 23.4373 41.6737 23.3069C40.893 22.9889 40.5027 22.4722 40.5027 21.7679C40.5027 20.4832 41.7527 19.8398 44.2526 19.8377C46.8752 19.8377 48.2728 20.7026 48.4462 22.4324H51.0039V22.3275C51.0039 20.6231 50.2975 19.3756 48.8847 18.5849C47.772 17.9606 46.2748 17.6484 44.393 17.6484C40.0393 17.6484 37.8635 19.1763 37.8657 22.2321C37.8657 23.5708 38.3947 24.5502 39.4657 25.1687C40.1205 25.5439 41.2866 25.8714 42.9607 26.1592L46.2075 26.7109C47.0398 26.8603 47.6125 27.0066 47.9173 27.1449C48.5186 27.4311 48.8234 27.8763 48.8234 28.4773C48.8234 29.9241 47.3183 30.6469 44.3075 30.6459C41.7269 30.6459 40.3124 29.6919 40.064 27.7841H37.1802C37.5028 31.2257 39.8785 32.9454 44.3075 32.9433C46.2633 32.9433 47.8546 32.6529 49.0816 32.072C50.7204 31.293 51.5398 30.0433 51.5398 28.323C51.5398 26.9843 51.0911 25.9965 50.1942 25.3595V25.3563Z" fill="#002A4E"/>
<path id="Vector_22" d="M54.4863 32.4276H57.0957V18.1328H54.4863V32.4276Z" fill="#002A4E"/>
<path id="Vector_23" d="M54.4863 16.2652H57.0957V13.1235H54.4863V16.2652Z" fill="#20262C"/>
</g>
<defs>
<clipPath id="clip0_220_505">
<rect width="166" height="50" fill="white"/>
</clipPath>
</defs>
</svg>
